<svg width="30" height="30" viewBox="0 0 30 30" fill="none" xmlns="http://www.w3.org/2000/svg">
<path d="M9.75 18.375H24L26.625 7.875H7.125" fill="#222222"/>
<path d="M9.75 18.375H24L26.625 7.875H7.125" stroke="#222222" stroke-linecap="round" stroke-linejoin="round"/>
<path d="M10.8565 22.8011L6.375 4.875H3.375" stroke="#222222" stroke-linecap="round" stroke-linejoin="round"/>
<path d="M9.90076 23.0623C10.5037 22.7143 11.2465 22.7143 11.8493 23.0623C12.4522 23.4104 12.8236 24.0537 12.8236 24.7498C12.8236 25.446 12.4522 26.0893 11.8493 26.4373C11.2465 26.7854 10.5037 26.7854 9.90076 26.4373C9.29788 26.0893 8.92651 25.446 8.92651 24.7498C8.92651 24.0537 9.29788 23.4104 9.90076 23.0623Z" stroke="#222222" stroke-linecap="round" stroke-linejoin="round"/>
<path d="M11.407 22.875H22.7178" stroke="#222222" stroke-linecap="round" stroke-linejoin="round"/>
<path d="M22.2758 23.0623C22.8787 22.7143 23.6215 22.7143 24.2243 23.0623C24.8272 23.4104 25.1986 24.0537 25.1986 24.7498C25.1986 25.446 24.8272 26.0893 24.2243 26.4373C23.6215 26.7854 22.8787 26.7854 22.2758 26.4373C21.6729 26.0893 21.3015 25.446 21.3015 24.7498C21.3015 24.0537 21.6729 23.4104 22.2758 23.0623Z" stroke="#222222" stroke-linecap="round" stroke-linejoin="round"/>
</svg>
