<svg width="30" height="30" viewBox="0 0 30 30" fill="none" xmlns="http://www.w3.org/2000/svg">
<path d="M22.5 26.2499H7.5C6.67159 26.2499 6 25.5783 6 24.7499V24.2488C6 22.069 7.35229 20.118 9.39337 19.3531C13.0083 17.9982 16.9917 17.9982 20.6066 19.3531C22.6477 20.118 24 22.069 24 24.2488V24.7499C24 25.5783 23.3284 26.2499 22.5 26.2499Z" fill="#222222" stroke="#222222" stroke-linecap="round" stroke-linejoin="round"/>
<path d="M12.7129 14.5753C14.1484 15.3127 15.8513 15.3127 17.2868 14.5753C18.6228 13.889 19.5799 12.6391 19.8942 11.1705L19.9781 10.7785C20.2994 9.27661 19.9562 7.70915 19.0365 6.47904L18.9018 6.29893C17.982 5.06866 16.5359 4.34424 14.9999 4.34424C13.4638 4.34424 12.0176 5.06866 11.0979 6.29893L10.9632 6.47904C10.0435 7.70915 9.70028 9.27661 10.0216 10.7785L10.1055 11.1705C10.4198 12.6391 11.3769 13.889 12.7129 14.5753Z" fill="#222222" stroke="#222222" stroke-linecap="round" stroke-linejoin="round"/>
</svg>
